<?xml version="1.0" encoding="UTF-8" standalone="no"?>
<!-- Generator: Adobe Illustrator 18.1.0, SVG Export Plug-In . SVG Version: 6.00 Build 0)  -->

<svg
   xmlns:dc="http://purl.org/dc/elements/1.1/"
   xmlns:cc="http://creativecommons.org/ns#"
   xmlns:rdf="http://www.w3.org/1999/02/22-rdf-syntax-ns#"
   xmlns:svg="http://www.w3.org/2000/svg"
   xmlns="http://www.w3.org/2000/svg"
   xmlns:sodipodi="http://sodipodi.sourceforge.net/DTD/sodipodi-0.dtd"
   xmlns:inkscape="http://www.inkscape.org/namespaces/inkscape"
   version="1.1"
   id="Layer_1"
   x="0px"
   y="0px"
   viewBox="0 0 140 161.65746"
   enable-background="new 0 0 320 240"
   xml:space="preserve"
   inkscape:version="0.92.4 (5da689c313, 2019-01-14)"
   sodipodi:docname="javascript.svg"
   width="140"
   height="161.65746"
   inkscape:export-filename="/home/mc/Papers/Projects/Forks/hexbin/hexagons/javascript.png"
   inkscape:export-xdpi="90"
   inkscape:export-ydpi="90"><metadata
     id="metadata65"><rdf:RDF><cc:Work
         rdf:about=""><dc:format>image/svg+xml</dc:format><dc:type
           rdf:resource="http://purl.org/dc/dcmitype/StillImage" /><dc:title></dc:title></cc:Work></rdf:RDF></metadata><defs
     id="defs63" /><sodipodi:namedview
     pagecolor="#ffffff"
     bordercolor="#666666"
     borderopacity="1"
     objecttolerance="10"
     gridtolerance="10"
     guidetolerance="10"
     inkscape:pageopacity="0"
     inkscape:pageshadow="2"
     inkscape:window-width="3840"
     inkscape:window-height="2066"
     id="namedview61"
     showgrid="false"
     fit-margin-top="0"
     fit-margin-left="0"
     fit-margin-right="0"
     fit-margin-bottom="0"
     inkscape:zoom="1"
     inkscape:cx="64.045879"
     inkscape:cy="89.822367"
     inkscape:window-x="-11"
     inkscape:window-y="-11"
     inkscape:window-maximized="1"
     inkscape:current-layer="Layer_1"
     inkscape:pagecheckerboard="true" /><polygon
     points="160.5,15 251,67.2 251,171.7 160.5,224 70,171.7 70,67.2 "
     id="polygon3"
     style="fill:#f7df1e;fill-opacity:1"
     transform="matrix(0.77348066,0,0,0.77348066,-54.143646,-11.60221)" /><path
     inkscape:connector-curvature="0"
     d="m 102.95635,103.98293 c 2.40646,3.92921 5.5373,6.81734 11.07461,6.81734 4.65172,0 7.62327,-2.32492 7.62327,-5.53732 0,-3.84955 -3.05311,-5.21302 -8.17322,-7.452601 l -2.80657,-1.20417 c -8.10115,-3.45133 -13.482948,-7.77498 -13.482948,-16.91532 0,-8.41974 6.415298,-14.82935 16.441238,-14.82935 7.1378,0 12.26929,2.48419 15.96715,8.98863 l -8.74211,5.61316 c -1.92478,-3.45133 -4.00127,-4.81101 -7.22504,-4.81101 -3.28825,0 -5.37233,2.08597 -5.37233,4.81101 0,3.36789 2.08598,4.73136 6.90268,6.81732 l 2.80657,1.20229 c 9.53857,4.09039 14.92416,8.26044 14.92416,17.635931 0,10.10747 -7.93996,15.64478 -18.60306,15.64478 -10.42606,0 -17.161838,-4.96841 -20.457671,-11.48043 z m -39.658088,0.97282 c 1.763589,3.12896 3.367889,5.77434 7.225036,5.77434 3.688381,0 6.015181,-1.4431 6.015181,-7.05437 V 65.502459 h 11.226315 v 38.324971 c 0,11.62454 -6.815431,16.91532 -16.763616,16.91532 -8.988635,0 -14.194083,-4.65171 -16.841366,-10.25444 z"
     id="path6"
     style="stroke-width:0.77348065" /></svg>